HIERARCHY
ROOT Hips
{
  OFFSET 183.877 103.25 50.0293
  CHANNELS 6 Xposition Yposition Zposition Zrotation Xrotation Yrotation
  JOINT RightUpLeg
  {
    OFFSET -8.9458 -8.66707 0.101652
    CHANNELS 3 Zrotation Xrotation Yrotation
    JOINT RightLeg
    {
      OFFSET 0 -44.4227 1.3727
      CHANNELS 3 Zrotation Xrotation Yrotation
      JOINT RightFoot
      {
        OFFSET 0.253549 -42.0924 -1.46059
        CHANNELS 3 Zrotation Xrotation Yrotation
        JOINT RightToes
        {
          OFFSET 0.04 -4.41509 8.4991
          CHANNELS 3 Zrotation Xrotation Yrotation
          End Site
          {
            OFFSET -0.08 -0.137448 9.77979
          }
        }
      }
    }
  }
  JOINT Spine
  {
    OFFSET 0 11.8905 0
    CHANNELS 3 Zrotation Xrotation Yrotation
    JOINT Spine1
    {
      OFFSET 0 25.6574 0.127663
      CHANNELS 3 Zrotation Xrotation Yrotation
      JOINT HEad
      {
        OFFSET 0 8.73416 0.011341
        CHANNELS 3 Zrotation Xrotation Yrotation
        End Site
        {
          OFFSET -0.29 12.7742 2.51395
        }
      }
      JOINT LeftShoulder1
      {
        OFFSET 8.99 -0.362252 -0.22
        CHANNELS 3 Zrotation Xrotation Yrotation
        JOINT LeftArm
        {
          OFFSET 10.2827 -0.00338 0.322123
          CHANNELS 3 Zrotation Xrotation Yrotation
          JOINT LeftForeArm
          {
            OFFSET 32.7669 0.099144 -1.42434
            CHANNELS 3 Zrotation Xrotation Yrotation
            JOINT LeftHand
            {
              OFFSET 27.5643 0.085362 1.02216
              CHANNELS 3 Zrotation Xrotation Yrotation
              End Site
              {
                OFFSET 16.7443 -0.6 1.50291
              }
            }
          }
        }
      }
      JOINT RightShoulder
      {
        OFFSET -8.99 -0.362252 -0.22
        CHANNELS 3 Zrotation Xrotation Yrotation
        JOINT RightArm
        {
          OFFSET -10.2827 -0.00338 0.322123
          CHANNELS 3 Zrotation Xrotation Yrotation
          JOINT RightForeArm
          {
            OFFSET -32.8971 0.099144 -1.42434
            CHANNELS 3 Zrotation Xrotation Yrotation
            JOINT RightHand
            {
              OFFSET -27.4921 0.085362 1.02216
              CHANNELS 3 Zrotation Xrotation Yrotation
              End Site
              {
                OFFSET -16.6312 -0.6 1.50291
              }
            }
          }
        }
      }
    }
  }
  JOINT LeftUpLeg
  {
    OFFSET 8.9458 -8.66707 0.101652
    CHANNELS 3 Zrotation Xrotation Yrotation
    JOINT LeftLeg
    {
      OFFSET 0 -44.4227 1.3727
      CHANNELS 3 Zrotation Xrotation Yrotation
      JOINT LeftFoot
      {
        OFFSET -0.253549 -42.0924 -1.46059
        CHANNELS 3 Zrotation Xrotation Yrotation
        JOINT LeftToes
        {
          OFFSET -0.04 -4.41509 8.4991
          CHANNELS 3 Zrotation Xrotation Yrotation
          End Site
          {
            OFFSET 0.08 -0.047448 9.77979
          }
        }
      }
    }
  }
}
MOTION
Frames:	20
Frame Time:	0.0166667
0	103.971	0	0.859661	0.916682	159.556	-0.104608	1.04378	5.06375	1.50914	9.44596	-9.08214	2.63427	-8.17925	0.139661	0.0462048	0.000533964	0.662642	-0.0649381	-3.27991	-0.459692	-0.156687	-6.5564	-0.925632	0.156494	9.90181	14.7857	7.95E-16	3.18E-15	-3.18E-15	0.726848	-14.0252	-3.15652	-1.76204	15.8591	-3.62869	3.54532	11.6875	3.14561	7.95E-16	3.18E-15	-3.18E-15	3.86794	-10.7348	3.61525	0.474972	17.0632	-2.68148	-3.09876	12.1233	-2.29215	-2.13075	3.0332	12.3639	1.32293	8.7144	1.34647	-5.89507	-17.8068	-1.38587	1.44E-14	3.18E-14	5.57E-15
-0.0043	103.969	-0.002	0.864205	0.914385	159.574	-0.101928	1.04495	5.06741	1.51243	9.44676	-9.08781	2.63666	-8.18501	0.137651	0.0462048	0.000533964	0.662642	-0.0629962	-3.28076	-0.461501	-0.152905	-6.55812	-0.92915	0.15542	9.90527	14.7789	-7.95E-16	0.00E+00	-3.18E-15	0.722278	-14.019	-3.15059	-1.75043	15.8513	-3.6099	3.58455	11.6691	3.16032	-7.95E-16	0.00E+00	-3.18E-15	3.87076	-10.7287	3.6005	0.481316	17.0975	-2.674	-3.06334	12.1305	-2.28002	-2.12805	3.03424	12.3343	1.3197	8.71237	1.34631	-5.88805	-17.8131	-1.38551	1.27E-14	3.10E-14	4.77E-15
-0.0078	103.968	0	0.871542	0.91694	159.593	-0.0999597	1.04719	5.06532	1.51408	9.44846	-9.08958	2.64093	-8.18898	0.139364	0.0462048	0.000533964	0.662642	-0.0618735	-3.2814	-0.462538	-0.151176	-6.55872	-0.930528	0.159031	9.8993	14.7704	-3.53E-31	-3.18E-15	-6.36E-15	0.738892	-14.016	-3.13567	-1.74608	15.8252	-3.59223	3.58463	11.6686	3.16475	-3.53E-31	-3.18E-15	-6.36E-15	3.87564	-10.7062	3.60066	0.489695	17.1042	-2.68192	-3.03798	12.1265	-2.2775	-2.12504	3.03409	12.3012	1.3161	8.71514	1.35368	-5.88123	-17.8177	-1.3856	1.36E-14	3.34E-14	6.36E-15
-0.0113	103.968	0.004	0.875806	0.921374	159.609	-0.0979639	1.05004	5.0592	1.51612	9.45532	-9.08982	2.64496	-8.1934	0.142636	0.0462048	0.000533964	0.662642	-0.0611296	-3.28188	-0.463296	-0.149953	-6.55873	-0.931184	0.161452	9.89117	14.7597	-2.39E-15	3.18E-15	3.18E-15	0.760834	-14.0206	-3.12126	-1.74547	15.8333	-3.57933	3.56147	11.6923	3.16788	-2.39E-15	3.18E-15	3.18E-15	3.88082	-10.6921	3.59879	0.485356	17.1006	-2.69143	-3.02389	12.1212	-2.2793	-2.12245	3.0333	12.2812	1.31319	8.72008	1.36008	-5.87455	-17.8183	-1.38568	1.42E-14	3.42E-14	7.16E-15
-0.0156	103.968	0.008	0.878179	0.92451	159.624	-0.0963251	1.05224	5.04579	1.51802	9.46343	-9.08915	2.64682	-8.19631	0.145642	0.0462048	0.000533964	0.662642	-0.0603931	-3.28226	-0.463827	-0.148145	-6.55843	-0.931271	0.157325	9.88429	14.7515	1.59E-15	3.18E-15	-6.36E-15	0.773655	-14.0122	-3.11453	-1.74008	15.8589	-3.56975	3.56237	11.7073	3.18198	1.59E-15	3.18E-15	-6.36E-15	3.87083	-10.6844	3.58846	0.47775	17.0933	-2.69298	-3.02728	12.1235	-2.2857	-2.12044	3.03187	12.2682	1.31135	8.72697	1.36528	-5.86674	-17.8191	-1.38582	1.50E-14	3.10E-14	5.57E-15
-0.0214	103.967	0.011	0.879512	0.925518	159.634	-0.0955846	1.0525	5.03029	1.5199	9.47263	-9.08824	2.6474	-8.20013	0.147838	0.0462048	0.000533964	0.662642	-0.0592923	-3.28259	-0.464184	-0.145573	-6.55813	-0.930942	0.146043	9.88677	14.7565	8.83E-32	1.59E-15	-3.18E-15	0.787759	-13.9836	-3.10134	-1.72776	15.8642	-3.57826	3.58055	11.6968	3.19257	8.83E-32	1.59E-15	-3.18E-15	3.84759	-10.6781	3.57789	0.47181	17.089	-2.69135	-3.03685	12.1425	-2.28969	-2.11971	3.0297	12.2659	1.31043	8.73357	1.36058	-5.85872	-17.8199	-1.38606	1.43E-14	3.18E-14	4.77E-15
-0.0288	103.967	0.012	0.88029	0.925791	159.643	-0.0962455	1.04834	5.02155	1.52183	9.48254	-9.08777	2.64763	-8.20394	0.149768	0.0462048	0.000533964	0.662642	-0.0574251	-3.28291	-0.464418	-0.142756	-6.55812	-0.93035	0.121542	9.906	14.7676	-7.95E-16	3.18E-15	-3.18E-15	0.809573	-13.9477	-3.08695	-1.72584	15.8528	-3.59057	3.59703	11.6912	3.18441	-7.95E-16	3.18E-15	-3.18E-15	3.8339	-10.6689	3.58297	0.449905	17.1058	-2.6885	-3.05346	12.147	-2.30137	-2.11961	3.02607	12.2563	1.30913	8.73811	1.35743	-5.8531	-17.8208	-1.38645	1.53E-14	3.18E-14	7.16E-15
-0.036	103.967	0.012	0.880528	0.925437	159.655	-0.100879	1.03939	5.02045	1.52296	9.48716	-9.08828	2.64834	-8.20684	0.151241	0.0462048	0.000533964	0.662642	-0.0563205	-3.28328	-0.464582	-0.140539	-6.55872	-0.92965	0.101468	9.9339	14.7771	0.00E+00	1.59E-15	0.00E+00	0.836229	-13.9252	-3.0837	-1.72268	15.8459	-3.60001	3.59584	11.6941	3.17319	0.00E+00	1.59E-15	0.00E+00	3.8037	-10.6601	3.57833	0.442174	17.1164	-2.68307	-3.07382	12.1505	-2.30733	-2.12145	3.01637	12.2446	1.30869	8.73869	1.34801	-5.8479	-17.8216	-1.38703	1.41E-14	3.26E-14	7.95E-15
-0.0436	103.966	0.012	0.880333	0.92453	159.669	-0.109984	1.03832	5.02013	1.52347	9.48652	-9.09072	2.65042	-8.21059	0.152489	0.0462048	0.000533964	0.662642	-0.0555653	-3.28374	-0.464727	-0.139823	-6.56021	-0.928994	0.0951092	9.966	14.7817	0.00E+00	-1.59E-15	0.00E+00	0.859742	-13.9383	-3.09132	-1.70791	15.8403	-3.60168	3.59895	11.7032	3.17528	0.00E+00	-1.59E-15	0.00E+00	3.76237	-10.639	3.56613	0.439755	17.0997	-2.67556	-3.08291	12.1562	-2.30241	-2.13216	3.01238	12.2293	1.30773	8.73757	1.3413	-5.84356	-17.8225	-1.38783	1.43E-14	3.34E-14	7.95E-15
-0.0509	103.967	0.012	0.879802	0.923146	159.682	-0.118373	1.03828	5.02009	1.52438	9.48361	-9.0982	2.65559	-8.21423	0.153846	0.0462048	0.000533964	0.662642	-0.0550608	-3.28435	-0.464905	-0.138762	-6.564	-0.928537	0.095756	9.99478	14.7836	7.95E-16	3.18E-15	0.00E+00	0.874164	-13.9504	-3.11534	-1.68407	15.8235	-3.59474	3.61888	11.6936	3.19106	7.95E-16	3.18E-15	0.00E+00	3.71444	-10.6126	3.55062	0.440616	17.0749	-2.66859	-3.07987	12.1682	-2.30527	-2.13909	3.01062	12.2135	1.30551	8.73542	1.34224	-5.83744	-17.8233	-1.3889	1.57E-14	3.10E-14	5.57E-15
-0.0603	103.967	0.007	0.878913	0.921406	159.701	-0.126507	1.03882	5.01977	1.5263	9.48123	-9.11169	2.66176	-8.21693	0.15527	0.0462048	0.000533964	0.662642	-0.0547083	-3.28515	-0.465168	-0.137716	-6.56661	-0.928426	0.0940334	10.0131	14.8008	7.95E-16	1.59E-15	-6.36E-15	0.902536	-13.9475	-3.12578	-1.67671	15.8145	-3.60615	3.63154	11.6971	3.1895	7.95E-16	1.59E-15	-6.36E-15	3.67847	-10.5907	3.55606	0.448407	17.0582	-2.68046	-3.07439	12.1765	-2.31533	-2.14681	3.00957	12.2027	1.30435	8.73298	1.33355	-5.82993	-17.8241	-1.39028	1.47E-14	3.34E-14	6.36E-15
-0.0704	103.967	0.002	0.877363	0.918073	159.721	-0.133252	1.0386	5.0187	1.52746	9.48038	-9.11965	2.66972	-8.21911	0.156721	0.0462048	0.000533964	0.662642	-0.0544091	-3.2862	-0.465569	-0.136627	-6.56882	-0.928815	0.084903	10.0241	14.8332	-8.83E-32	-1.59E-15	-3.18E-15	0.940529	-13.9196	-3.12046	-1.68635	15.8242	-3.64016	3.61441	11.7065	3.16829	-8.83E-32	-1.59E-15	-3.18E-15	3.62777	-10.5855	3.5676	0.45651	17.0684	-2.69418	-3.05087	12.1773	-2.32662	-2.15065	3.00711	12.2008	1.29964	8.72953	1.31542	-5.8191	-17.8249	-1.39285	1.52E-14	3.50E-14	7.16E-15
-0.0823	103.967	-0.004	0.874524	0.911431	159.743	-0.140316	1.03626	5.01061	1.52875	9.47972	-9.12853	2.67556	-8.22161	0.158159	0.0462048	0.000533964	0.662642	-0.0540644	-3.28755	-0.466158	-0.135443	-6.57177	-0.929859	0.0733224	10.0415	14.8579	1.77E-31	1.59E-15	-6.36E-15	0.978372	-13.8817	-3.12894	-1.70727	15.8777	-3.6609	3.60698	11.7073	3.15165	1.77E-31	1.59E-15	-6.36E-15	3.55229	-10.5613	3.57407	0.461703	17.0954	-2.70857	-3.01998	12.1897	-2.33743	-2.15511	3.00126	12.2064	1.29631	8.72405	1.29601	-5.80897	-17.8256	-1.39552	1.32E-14	3.26E-14	6.36E-15
-0.096	103.967	-0.009	0.87056	0.901764	159.767	-0.151677	1.02905	4.99988	1.53039	9.47921	-9.13963	2.68089	-8.22429	0.159544	0.0462048	0.000533964	0.662642	-0.0535815	-3.28996	-0.46699	-0.134218	-6.5766	-0.932638	0.0640485	10.0661	14.8732	7.95E-16	-1.59E-15	-3.18E-15	1.01504	-13.833	-3.14192	-1.71943	15.9241	-3.67013	3.60353	11.7117	3.15091	7.95E-16	-1.59E-15	-3.18E-15	3.48535	-10.5168	3.58528	0.455237	17.1184	-2.71235	-3.01188	12.2059	-2.35341	-2.16113	2.99197	12.2216	1.29634	8.7179	1.26644	-5.80268	-17.8266	-1.39815	1.42E-14	3.26E-14	4.77E-15
-0.1109	103.967	-0.013	0.865116	0.888081	159.795	-0.159613	1.01743	4.98632	1.53196	9.4789	-9.1503	2.68556	-8.22598	0.160834	0.0462048	0.000533964	0.662642	-0.0528448	-3.29141	-0.468114	-0.133159	-6.583	-0.939761	0.0609065	10.1001	14.8773	7.95E-16	0.00E+00	3.18E-15	1.03739	-13.7867	-3.15466	-1.6976	15.9445	-3.6733	3.62201	11.7292	3.16349	7.95E-16	0.00E+00	3.18E-15	3.41838	-10.4653	3.59806	0.441225	17.1187	-2.7024	-3.04263	12.2035	-2.35068	-2.16239	2.97858	12.2408	1.29685	8.71164	1.23014	-5.80093	-17.8276	-1.4001	1.42E-14	3.10E-14	5.57E-15
-0.1245	103.967	-0.017	0.858329	0.870412	159.824	-0.169888	0.99769	4.97401	1.53471	9.47859	-9.168	2.68891	-8.22548	0.161988	0.0462048	0.000533964	0.662642	-0.0517602	-3.29254	-0.469582	-0.131417	-6.5898	-0.944759	0.0658933	10.134	14.8648	7.95E-16	-1.59E-15	6.36E-15	1.04722	-13.7599	-3.17293	-1.66455	15.9242	-3.67372	3.68018	11.7401	3.16972	7.95E-16	-1.59E-15	6.36E-15	3.34519	-10.415	3.59337	0.43373	17.0816	-2.68402	-3.09722	12.1794	-2.34055	-2.16175	2.96216	12.2556	1.29737	8.7066	1.19871	-5.80021	-17.8283	-1.40125	1.44E-14	3.34E-14	4.77E-15
-0.1374	103.967	-0.021	0.851924	0.853293	159.852	-0.176578	0.979421	4.9645	1.53788	9.47838	-9.18812	2.69368	-8.21993	0.162965	0.0462048	0.000533964	0.662642	-0.0502796	-3.29341	-0.472321	-0.128269	-6.59369	-0.95016	0.0672081	10.158	14.8484	7.95E-16	0.00E+00	0.00E+00	1.07351	-13.7647	-3.18771	-1.66976	15.9002	-3.67364	3.73559	11.7297	3.15483	7.95E-16	0.00E+00	0.00E+00	3.28129	-10.3899	3.59769	0.420541	17.0587	-2.67233	-3.12769	12.1615	-2.34203	-2.16043	2.94617	12.2668	1.29807	8.70192	1.16735	-5.79795	-17.828	-1.40194	1.41E-14	3.18E-14	4.77E-15
-0.1505	103.967	-0.025	0.847017	0.839702	159.876	-0.181031	0.966384	4.95316	1.53945	9.47859	-9.19828	2.69815	-8.21435	0.163727	0.0462048	0.000533964	0.662642	-0.0473152	-3.2941	-0.473832	-0.122851	-6.59543	-0.958013	0.0738117	10.1736	14.8339	0.00E+00	1.59E-15	0.00E+00	1.10711	-13.7689	-3.1894	-1.67927	15.8923	-3.68684	3.72593	11.738	3.14454	0.00E+00	1.59E-15	0.00E+00	3.21947	-10.3959	3.60539	0.416363	17.0814	-2.66404	-3.11498	12.1633	-2.35584	-2.16186	2.93423	12.2877	1.29923	8.69858	1.12432	-5.79487	-17.8257	-1.40223	1.28E-14	3.18E-14	4.77E-15
-0.167	103.967	-0.027	0.845499	0.831915	159.9	-0.191599	0.955964	4.94236	1.54176	9.47884	-9.21265	2.70395	-8.20851	0.164232	0.0462048	0.000533964	0.662642	-0.0417503	-3.29469	-0.475073	-0.112771	-6.59645	-0.964606	0.074989	10.2087	14.8186	0.00E+00	0.00E+00	0.00E+00	1.13	-13.7339	-3.20133	-1.68981	15.8926	-3.68704	3.70346	11.7542	3.14515	0.00E+00	0.00E+00	0.00E+00	3.14691	-10.3708	3.6187	0.420918	17.1165	-2.6706	-3.09681	12.1747	-2.36331	-2.1651	2.9275	12.3113	1.3007	8.69558	1.07629	-5.79183	-17.8236	-1.40224	1.38E-14	3.26E-14	4.77E-15
-0.1854	103.967	-0.029	0.845515	0.826698	159.918	-0.199892	0.948933	4.93347	1.54376	9.47928	-9.22475	2.71086	-8.20219	0.164441	0.0462048	0.000533964	0.662642	-0.0363648	-3.29525	-0.476077	-0.101567	-6.59692	-0.968147	0.0765615	10.2381	14.8051	0.00E+00	3.18E-15	0.00E+00	1.14447	-13.6964	-3.2067	-1.69356	15.9009	-3.68555	3.67735	11.757	3.15015	0.00E+00	3.18E-15	0.00E+00	3.06891	-10.3433	3.63798	0.423861	17.1422	-2.68117	-3.0834	12.1926	-2.36807	-2.16906	2.92452	12.3384	1.30525	8.69273	1.04111	-5.78968	-17.8215	-1.40203	1.62E-14	3.10E-14	5.57E-15
